<?xml version="1.0" encoding="UTF-8" standalone="no"?>
<svg width="35px" height="35px" viewBox="0 0 35 35" version="1.1" xmlns="http://www.w3.org/2000/svg" xmlns:xlink="http://www.w3.org/1999/xlink" xmlns:sketch="http://www.bohemiancoding.com/sketch/ns">
    <!-- Generator: Sketch 3.2.2 (9983) - http://www.bohemiancoding.com/sketch -->
    <title>Fill 593</title>
    <desc>Created with Sketch.</desc>
    <defs></defs>
    <g id="single" stroke="none" stroke-width="1" fill="none" fill-rule="evenodd" sketch:type="MSPage">
        <g id="single_pc" sketch:type="MSArtboardGroup" transform="translate(-664.000000, -2330.000000)" fill="#CD4F43">
            <g id="author" sketch:type="MSLayerGroup" transform="translate(250.000000, 2294.000000)">
                <g id="sns" transform="translate(329.000000, 36.000000)" sketch:type="MSShapeGroup">
                    <path d="M99.3760714,9.59 C98.0153571,9.54953125 97.1003571,10.94625 97.3371429,12.770625 C97.5717857,14.5971875 98.8660714,15.8725 100.227857,15.9151563 C101.589643,15.955625 102.371786,14.7809375 102.137143,12.954375 C101.9025,11.13 100.737857,9.63265625 99.3760714,9.59 Z M99.9482143,19.6514063 C97.9189286,19.6273438 96.1992857,20.9584375 96.1992857,22.5028125 C96.1992857,24.0778125 97.665,25.3892188 99.6942857,25.3892188 C102.5475,25.3892188 103.541786,24.15875 103.541786,22.5826563 C103.541786,22.3923438 103.518214,22.2064063 103.476429,22.0270313 C103.2525,21.135625 102.365357,20.6467188 101.262857,19.8646875 C100.863214,19.7323438 100.421786,19.6557813 99.9482143,19.6514063 Z M111.422143,12.5595312 L109.090714,12.5595312 L109.090714,14.93625 L107.926071,14.93625 L107.926071,12.5595312 L105.595714,12.5595312 L105.595714,11.3695312 L107.926071,11.3695312 L107.926071,8.98953125 L109.090714,8.98953125 L109.090714,11.3695312 L111.422143,11.3695312 L111.422143,12.5595312 L111.422143,12.5595312 Z M104.1675,12.8778125 C104.1675,14.0185938 103.549286,14.93625 102.675,15.6329688 C101.821071,16.314375 101.660357,16.59875 101.660357,17.1773437 C101.660357,17.670625 102.679286,18.405625 103.148571,18.764375 C104.779286,20.0145313 105.110357,20.8009375 105.110357,22.3617188 C105.110357,24.3129687 103.052143,26.25 99.7060714,26.25 C96.7692857,26.25 94.2921429,25.0326563 94.2921429,23.0825 C94.2921429,21.1039063 96.3471429,19.04 99.2828571,19.04 C99.6032143,19.04 99.8957143,19.03125 100.2,19.03125 C99.7982143,18.6342188 99.4735714,18.2907812 99.4735714,17.688125 C99.4735714,17.329375 99.5839286,16.9870313 99.7414286,16.681875 C99.5817857,16.6928125 99.4189286,16.70375 99.2517857,16.70375 C96.84,16.70375 95.4353571,14.9734375 95.4353571,12.8045313 C95.4353571,10.6815625 97.5728571,8.75 100.136786,8.75 L105.189643,8.75 L104.060357,9.961875 L102.733929,9.961875 C103.670357,10.50875 104.1675,11.6342188 104.1675,12.8778125 L104.1675,12.8778125 Z M102.857143,0 C93.39,0 85.7142857,7.835625 85.7142857,17.5 C85.7142857,27.1665625 93.39,35 102.857143,35 C112.325357,35 120,27.1665625 120,17.5 C120,7.835625 112.325357,0 102.857143,0 L102.857143,0 Z" id="Fill-593"></path>
                </g>
            </g>
        </g>
    </g>
</svg>