<?xml version="1.0" encoding="UTF-8" standalone="no"?>
<svg width="35px" height="35px" viewBox="0 0 35 35" version="1.1" xmlns="http://www.w3.org/2000/svg" xmlns:xlink="http://www.w3.org/1999/xlink" xmlns:sketch="http://www.bohemiancoding.com/sketch/ns">
    <!-- Generator: Sketch 3.2.2 (9983) - http://www.bohemiancoding.com/sketch -->
    <title>Fill 576</title>
    <desc>Created with Sketch.</desc>
    <defs></defs>
    <g id="single" stroke="none" stroke-width="1" fill="none" fill-rule="evenodd" sketch:type="MSPage">
        <g id="single_pc" sketch:type="MSArtboardGroup" transform="translate(-579.000000, -2330.000000)" fill="#39A0CE">
            <g id="author" sketch:type="MSLayerGroup" transform="translate(250.000000, 2294.000000)">
                <g id="sns" transform="translate(329.000000, 36.000000)" sketch:type="MSShapeGroup">
                    <path d="M23.9592857,13.9321875 C23.9667857,14.0864063 23.97,14.240625 23.97,14.3959375 C23.97,19.140625 20.4321429,24.6115625 13.9628571,24.6115625 C11.9764286,24.6115625 10.1282143,24.0176563 8.57142857,22.9982813 C8.84785714,23.0310938 9.1275,23.0475 9.41035714,23.0475 C11.0592857,23.0475 12.5742857,22.4754688 13.7775,21.511875 C12.24,21.4823438 10.9403571,20.444375 10.4935714,19.0192187 C10.7078571,19.0596875 10.9275,19.0826563 11.1546429,19.0826563 C11.4760714,19.0826563 11.7867857,19.0378125 12.0803571,18.956875 C10.4732143,18.6254687 9.26035714,17.1751563 9.26035714,15.4360937 L9.26035714,15.39125 C9.735,15.6603125 10.2771429,15.8210938 10.8535714,15.8407813 C9.90964286,15.1976562 9.28928571,14.0973437 9.28928571,12.8515625 C9.28928571,12.1942188 9.46285714,11.57625 9.765,11.046875 C11.4985714,13.2190625 14.0914286,14.6485937 17.0142857,14.7973437 C16.9542857,14.5348438 16.9232143,14.2614063 16.9232143,13.9792188 C16.9232143,11.9973438 18.4982143,10.390625 20.4407143,10.390625 C21.4510714,10.390625 22.3660714,10.8270313 23.0078571,11.5226562 C23.8082143,11.3629687 24.5614286,11.0632813 25.2417857,10.6509375 C24.9782143,11.4909375 24.4210714,12.1942188 23.6946429,12.6382813 C24.4060714,12.5529688 25.0842857,12.3582813 25.7142857,12.0739063 C25.2439286,12.7935938 24.6471429,13.4257813 23.9592857,13.9321875 L23.9592857,13.9321875 Z M17.1428571,0 C7.67571429,0 0,7.835625 0,17.5 C0,27.1665625 7.67571429,35 17.1428571,35 C26.61,35 34.2857143,27.1665625 34.2857143,17.5 C34.2857143,7.835625 26.61,0 17.1428571,0 L17.1428571,0 Z" id="Fill-576"></path>
                </g>
            </g>
        </g>
    </g>
</svg>