<?xml version="1.0" encoding="UTF-8" standalone="no"?>
<svg width="36px" height="35px" viewBox="0 0 36 35" version="1.1" xmlns="http://www.w3.org/2000/svg" xmlns:xlink="http://www.w3.org/1999/xlink" xmlns:sketch="http://www.bohemiancoding.com/sketch/ns">
    <!-- Generator: Sketch 3.2.2 (9983) - http://www.bohemiancoding.com/sketch -->
    <title>Fill 575</title>
    <desc>Created with Sketch.</desc>
    <defs></defs>
    <g id="single" stroke="none" stroke-width="1" fill="none" fill-rule="evenodd" sketch:type="MSPage">
        <g id="single_pc" sketch:type="MSArtboardGroup" transform="translate(-621.000000, -2330.000000)" fill="#35568C">
            <g id="author" sketch:type="MSLayerGroup" transform="translate(250.000000, 2294.000000)">
                <g id="sns" transform="translate(329.000000, 36.000000)" sketch:type="MSShapeGroup">
                    <path d="M63.6728571,17.5065625 L61.2707143,17.5065625 L61.2707143,26.25 L57.7114286,26.25 L57.7114286,17.5065625 L56.0185714,17.5065625 L56.0185714,14.4178125 L57.7114286,14.4178125 L57.7114286,12.4184375 C57.7114286,10.9867188 58.3767857,8.75 61.3028571,8.75 L63.9396429,8.7609375 L63.9396429,11.76 L62.0260714,11.76 C61.7142857,11.76 61.2707143,11.9185938 61.2707143,12.6021875 L61.2707143,14.4178125 L63.9846429,14.4178125 L63.6728571,17.5065625 L63.6728571,17.5065625 Z M60,0 C50.5328571,0 42.8571429,7.835625 42.8571429,17.5 C42.8571429,27.1665625 50.5328571,35 60,35 C69.4682143,35 77.1428571,27.1665625 77.1428571,17.5 C77.1428571,7.835625 69.4682143,0 60,0 L60,0 Z" id="Fill-575"></path>
                </g>
            </g>
        </g>
    </g>
</svg>