<?xml version="1.0" encoding="UTF-8" standalone="no"?><svg xmlns="http://www.w3.org/2000/svg" xmlns:xlink="http://www.w3.org/1999/xlink"><symbol viewBox="0 0 36 35" id="icon_authorFb"><title>icon_authorFb.svg</title><desc>Created with Sketch.</desc><g fill-rule="evenodd"><g transform="translate(-620 -2269)"><g transform="translate(173 2172)"><g transform="translate(406 97)"><path d="M62.67 17.507h-2.4v8.743h-3.56v-8.743h-1.693v-3.09h1.693v-2c0-1.43.665-3.667 3.59-3.667l2.638.01v3h-1.914c-.31 0-.755.16-.755.842v1.816h2.713l-.312 3.09zM59 0c-9.664 0-17.5 7.836-17.5 17.5C41.5 27.167 49.336 35 59 35c9.665 0 17.5-7.833 17.5-17.5C76.5 7.836 68.665 0 59 0z"/></g></g></g></g></symbol><symbol viewBox="0 0 34 34" id="icon_authorGh"><title>icon_authorGh.svg</title><desc>Created with Sketch.</desc><g fill-rule="evenodd"><g transform="translate(-664 -2269)"><g transform="translate(173 2172)"><g transform="translate(406 97)"><g transform="translate(85)"><path d="M17 0C7.612 0 0 7.796 0 17.412c0 7.694 4.87 14.22 11.626 16.52.85.158 1.16-.377 1.16-.84 0-.412-.015-1.51-.023-2.96-4.73 1.05-5.727-2.332-5.727-2.332-.774-2.015-1.887-2.55-1.887-2.55-1.546-1.08.116-1.06.116-1.06 1.706.126 2.605 1.795 2.605 1.795 1.516 2.662 3.98 1.896 4.948 1.45.155-1.128.593-1.892 1.08-2.33-3.774-.437-7.744-1.934-7.744-8.605 0-1.9.663-3.454 1.75-4.67-.175-.443-.76-2.212.165-4.608 0 0 1.427-.468 4.674 1.784 1.357-.387 2.81-.58 4.256-.585 1.445.007 2.898.2 4.256.586 3.245-2.252 4.67-1.784 4.67-1.784.93 2.396.345 4.167.17 4.607 1.09 1.216 1.746 2.77 1.746 4.67 0 6.688-3.974 8.162-7.76 8.593.61.535 1.153 1.597 1.153 3.225 0 2.325-.02 4.205-.02 4.773 0 .47.305 1.01 1.168.84C29.133 31.62 34 25.1 34 17.41 34 7.796 26.388 0 17 0"/></g></g></g></g></g></symbol><symbol viewBox="0 0 35 35" id="icon_authorTw"><title>icon_authorTw.svg</title><desc>Created with Sketch.</desc><g fill-rule="evenodd"><g transform="translate(-579 -2269)"><g transform="translate(173 2172)"><g transform="translate(406 97)"><path d="M25.316 13.93c.008.155.01.31.01.465 0 4.745-3.537 10.215-10.006 10.215-1.986 0-3.835-.593-5.39-1.613.275.033.555.05.838.05 1.648 0 3.163-.573 4.367-1.536-1.538-.03-2.838-1.067-3.284-2.492.215.04.435.064.662.064.32 0 .632-.045.925-.126-1.607-.332-2.82-1.782-2.82-3.52v-.046c.475.27 1.017.43 1.594.45-.943-.643-1.564-1.744-1.564-2.99 0-.657.174-1.275.476-1.804 1.734 2.172 4.327 3.602 7.25 3.75-.06-.262-.092-.536-.092-.818 0-1.982 1.575-3.588 3.518-3.588 1.01 0 1.925.436 2.567 1.132.8-.16 1.554-.46 2.234-.872-.265.84-.822 1.543-1.548 1.987.71-.085 1.39-.28 2.02-.564-.47.72-1.068 1.352-1.756 1.858zM17.5 0C7.836 0 0 7.836 0 17.5 0 27.167 7.836 35 17.5 35S35 27.167 35 17.5C35 7.836 27.164 0 17.5 0z"/></g></g></g></g></symbol></svg>