<?xml version="1.0" encoding="UTF-8" standalone="no"?><svg xmlns="http://www.w3.org/2000/svg" xmlns:xlink="http://www.w3.org/1999/xlink"><symbol viewBox="0 0 36 35" id="btn_fb"><title>Fill 575</title><desc>Created with Sketch.</desc><g fill="none" fill-rule="evenodd"><g transform="translate(-621 -2330)" fill="#35568C"><g transform="translate(250 2294)"><g transform="translate(329 36)"><path d="M63.673 17.507H61.27v8.743h-3.56v-8.743h-1.69v-3.09h1.69v-2c0-1.43.667-3.667 3.593-3.667l2.637.01v3h-1.914c-.312 0-.755.16-.755.842v1.816h2.715l-.312 3.09zM60 0c-9.467 0-17.143 7.836-17.143 17.5C42.857 27.167 50.533 35 60 35c9.468 0 17.143-7.833 17.143-17.5C77.143 7.836 69.468 0 60 0z"/></g></g></g></g></symbol><symbol viewBox="0 0 35 35" id="btn_gPlus"><title>Fill 593</title><desc>Created with Sketch.</desc><g fill="none" fill-rule="evenodd"><g transform="translate(-664 -2330)" fill="#CD4F43"><g transform="translate(250 2294)"><g transform="translate(329 36)"><path d="M99.376 9.59c-1.36-.04-2.276 1.356-2.04 3.18.236 1.827 1.53 3.103 2.892 3.145 1.362.04 2.144-1.134 1.91-2.96-.236-1.825-1.4-3.322-2.762-3.365zm.572 10.06c-2.03-.023-3.75 1.308-3.75 2.853 0 1.575 1.467 2.886 3.496 2.886 2.853 0 3.848-1.23 3.848-2.807 0-.19-.024-.377-.066-.556-.224-.89-1.11-1.38-2.213-2.162-.4-.133-.84-.21-1.315-.214zm11.474-7.09h-2.33v2.376h-1.166V12.56h-2.33v-1.19h2.33V8.99h1.165v2.38h2.332v1.19zm-7.254.318c0 1.14-.62 2.058-1.493 2.755-.854.68-1.015.966-1.015 1.544 0 .494 1.02 1.23 1.49 1.587 1.63 1.25 1.96 2.037 1.96 3.598 0 1.95-2.058 3.888-5.404 3.888-2.937 0-5.414-1.217-5.414-3.168 0-1.978 2.055-4.042 4.99-4.042.32 0 .614-.01.918-.01-.402-.396-.726-.74-.726-1.342 0-.36.11-.7.267-1.006-.158.01-.32.022-.488.022-2.412 0-3.817-1.73-3.817-3.9 0-2.122 2.138-4.054 4.702-4.054h5.053l-1.13 1.212h-1.326c.936.547 1.434 1.672 1.434 2.916zM102.858 0C93.39 0 85.713 7.836 85.713 17.5c0 9.667 7.676 17.5 17.143 17.5C112.325 35 120 27.167 120 17.5 120 7.836 112.325 0 102.857 0z"/></g></g></g></g></symbol><symbol viewBox="0 0 34 34" id="btn_gh"><title>Page 1</title><desc>Created with Sketch.</desc><g fill="none" fill-rule="evenodd"><g transform="translate(-710 -2330)" fill="#181616"><g transform="translate(250 2294)"><g transform="translate(329 36)"><g transform="translate(131)"><path d="M17 0C7.612 0 0 7.796 0 17.412c0 7.694 4.87 14.22 11.626 16.52.85.158 1.16-.377 1.16-.84 0-.412-.015-1.51-.023-2.96-4.73 1.05-5.727-2.332-5.727-2.332-.774-2.015-1.887-2.55-1.887-2.55-1.546-1.08.116-1.06.116-1.06 1.706.126 2.605 1.795 2.605 1.795 1.516 2.662 3.98 1.896 4.948 1.45.155-1.128.593-1.892 1.08-2.33-3.774-.437-7.744-1.934-7.744-8.605 0-1.9.663-3.454 1.75-4.67-.175-.443-.76-2.212.165-4.608 0 0 1.427-.468 4.674 1.784 1.357-.387 2.81-.58 4.256-.585 1.445.007 2.898.2 4.256.586 3.245-2.252 4.67-1.784 4.67-1.784.93 2.396.345 4.167.17 4.607 1.09 1.216 1.746 2.77 1.746 4.67 0 6.688-3.974 8.162-7.76 8.593.61.535 1.153 1.597 1.153 3.225 0 2.325-.02 4.205-.02 4.773 0 .47.305 1.01 1.168.84C29.133 31.62 34 25.1 34 17.41 34 7.796 26.388 0 17 0"/></g></g></g></g></g></symbol><symbol viewBox="0 0 35 35" id="btn_tw"><title>Fill 576</title><desc>Created with Sketch.</desc><g fill="none" fill-rule="evenodd"><g transform="translate(-579 -2330)" fill="#39A0CE"><g transform="translate(250 2294)"><g transform="translate(329 36)"><path d="M23.96 13.932c.007.154.01.31.01.464 0 4.745-3.538 10.216-10.007 10.216-1.987 0-3.835-.594-5.392-1.614.278.033.557.05.84.05 1.65 0 3.164-.573 4.367-1.536-1.537-.03-2.837-1.068-3.283-2.493.214.04.434.063.66.063.322 0 .633-.045.926-.126-1.607-.332-2.82-1.782-2.82-3.52v-.046c.475.27 1.017.43 1.594.45-.944-.642-1.565-1.743-1.565-2.988 0-.658.173-1.276.475-1.805 1.734 2.172 4.326 3.602 7.25 3.75-.06-.262-.092-.536-.092-.818 0-1.983 1.575-3.59 3.518-3.59 1.01 0 1.926.437 2.568 1.133.8-.16 1.553-.46 2.234-.872-.264.84-.82 1.544-1.547 1.988.71-.085 1.39-.28 2.02-.564-.47.72-1.068 1.352-1.756 1.858zM17.142 0C7.676 0 0 7.836 0 17.5 0 27.167 7.676 35 17.143 35s17.143-7.833 17.143-17.5C34.286 7.836 26.61 0 17.143 0z"/></g></g></g></g></symbol></svg>