<?xml version="1.0" encoding="UTF-8" standalone="no"?><svg xmlns="http://www.w3.org/2000/svg" xmlns:xlink="http://www.w3.org/1999/xlink"><symbol viewBox="0 0 68 68" id="icon_exp"><title>exp</title><desc>exp</desc><g transform="translate(-170 -30)"><g><g transform="translate(170 30)"><circle fill="#333" cx="34" cy="34" r="34"/><g transform="translate(14 15)"><path d="M5.132.353l13.11 13.414-5.062 5.18L.07 5.535.254.544l4.877-.19" fill="#4ABBC1"/><path d="M18.243 25.508L5.133 38.923l-5.064-5.18 13.11-13.415 4.877.19.186 4.99" fill="#DCAE1F"/><path d="M34.722.232l-13.11 13.415 5.063 5.18 13.11-13.414L39.6.423l-4.878-.19" fill="#C8569A"/><path d="M21.61 25.388l13.112 13.414 5.064-5.18-13.11-13.415-4.88.19-.185 4.99" fill="#7DB347"/></g></g></g></g></symbol><symbol viewBox="0 0 49 49" id="icon_fb"><title>facebook</title><desc>exp facebook page</desc><g fill="none" fill-rule="evenodd"><g transform="translate(-616 -2990)" fill="#636462"><g transform="translate(0 2470)"><path d="M640.242 520C626.855 520 616 530.855 616 544.242c0 13.39 10.855 24.243 24.242 24.243 13.39 0 24.243-10.852 24.243-24.243 0-13.387-10.853-24.242-24.243-24.242zm5.194 24.252h-3.397v12.112h-5.034v-12.112h-2.395v-4.28h2.396v-2.77c0-1.982.94-5.08 5.08-5.08l3.728.014v4.155h-2.706c-.44 0-1.07.22-1.07 1.166v2.515h3.84l-.442 4.282z"/></g></g></g></symbol><symbol viewBox="0 0 47 46" id="icon_gh"><title>Imported Layers</title><desc>Created with Sketch.</desc><g fill="none" fill-rule="evenodd"><g transform="translate(-681 -2990)" fill="#636463"><g transform="translate(0 2470)"><path d="M704.5 520c-12.978 0-23.5 10.535-23.5 23.53 0 10.396 6.733 19.214 16.07 22.326 1.176.212 1.605-.512 1.605-1.138 0-.556-.02-2.04-.032-3.997-6.54 1.418-7.917-3.152-7.917-3.152-1.07-2.724-2.608-3.447-2.608-3.447-2.136-1.458.16-1.43.16-1.43 2.36.17 3.602 2.425 3.602 2.425 2.095 3.597 5.502 2.56 6.84 1.96.213-1.525.82-2.557 1.49-3.15-5.216-.59-10.703-2.613-10.703-11.628 0-2.568.917-4.668 2.42-6.312-.243-.597-1.05-2.988.227-6.226 0 0 1.974-.634 6.462 2.41 1.877-.523 3.887-.782 5.884-.79 1.997.008 4.007.267 5.884.79 4.485-3.044 6.456-2.41 6.456-2.41 1.284 3.237.476 5.63.235 6.225 1.504 1.644 2.412 3.744 2.412 6.312 0 9.038-5.493 11.03-10.728 11.612.842.722 1.594 2.158 1.594 4.358 0 3.14-.03 5.682-.03 6.45 0 .632.424 1.36 1.617 1.132 9.333-3.118 16.06-11.93 16.06-22.32 0-12.995-10.522-23.53-23.5-23.53"/></g></g></g></symbol><symbol viewBox="0 0 49 49" id="icon_tw"><title>twitter</title><desc>exp twitter accout</desc><g fill="none" fill-rule="evenodd"><g transform="translate(-552 -2990)" fill="#636462"><g transform="translate(0 2470)"><path d="M576.242 520C562.855 520 552 530.855 552 544.242c0 13.39 10.855 24.243 24.242 24.243 13.388 0 24.243-10.852 24.243-24.243 0-13.387-10.855-24.242-24.243-24.242zm9.64 19.3c.01.214.015.426.015.642 0 6.573-5.003 14.152-14.152 14.152-2.81 0-5.422-.823-7.624-2.235.392.043.788.067 1.188.067 2.33 0 4.474-.792 6.175-2.127-2.174-.042-4.012-1.48-4.644-3.455.302.058.613.09.934.09.455 0 .894-.062 1.31-.174-2.273-.458-3.99-2.468-3.99-4.877v-.062c.673.374 1.44.597 2.254.622-1.334-.89-2.212-2.415-2.212-4.14 0-.91.246-1.766.673-2.5 2.45 3.01 6.117 4.99 10.25 5.196-.084-.363-.128-.742-.128-1.133 0-2.745 2.227-4.97 4.974-4.97 1.43 0 2.723.602 3.63 1.567 1.132-.223 2.197-.636 3.16-1.207-.375 1.163-1.16 2.136-2.188 2.75 1.006-.117 1.965-.385 2.856-.78-.666.998-1.51 1.873-2.482 2.575z"/></g></g></g></symbol></svg>