<?xml version="1.0" encoding="UTF-8" standalone="no"?>
<svg width="21px" height="18px" viewBox="0 0 21 18" version="1.1" xmlns="http://www.w3.org/2000/svg" xmlns:xlink="http://www.w3.org/1999/xlink" xmlns:sketch="http://www.bohemiancoding.com/sketch/ns">
    <!-- Generator: Sketch 3.2.2 (9983) - http://www.bohemiancoding.com/sketch -->
    <title>icon_tw</title>
    <desc>Created with Sketch.</desc>
    <defs></defs>
    <g id="single" stroke="none" stroke-width="1" fill="none" fill-rule="evenodd" sketch:type="MSPage">
        <g id="single_pc" sketch:type="MSArtboardGroup" transform="translate(-265.000000, -682.000000)" fill="#FFFFFF">
            <g id="entry-header" sketch:type="MSLayerGroup" transform="translate(170.000000, 430.000000)">
                <g id="sns_flat" transform="translate(80.000000, 240.000000)" sketch:type="MSShapeGroup">
                    <g id="btn_twitter">
                        <path d="M35.5333333,14.0205 C34.778,14.364 33.9669333,14.595 33.1148,14.6985 C33.9830667,14.166 34.6518667,13.3215 34.9657333,12.315 C34.1532,12.8085 33.2512,13.167 32.2934667,13.3605 C31.5249333,12.5235 30.4293333,12 29.2164,12 C26.8902667,12 25.0041333,13.929 25.0041333,16.308 C25.0041333,16.6455 25.0422667,16.974 25.1141333,17.289 C21.6132,17.109 18.5082667,15.3945 16.43,12.7875 C16.0677333,13.4235 15.8594667,14.166 15.8594667,14.955 C15.8594667,16.449 16.6016,17.7675 17.7324,18.54 C17.0430667,18.5175 16.3933333,18.324 15.8242667,18.0015 L15.8242667,18.057 C15.8242667,20.145 17.2748,21.885 19.2034667,22.281 C18.85,22.3785 18.4789333,22.431 18.0946667,22.431 C17.8218667,22.431 17.5593333,22.401 17.3012,22.3545 C17.838,24.0675 19.3941333,25.311 21.2362667,25.344 C19.796,26.5005 17.9773333,27.189 16.0061333,27.189 C15.6658667,27.189 15.33,27.168 15,27.1275 C16.8641333,28.3515 19.0773333,29.064 21.4562667,29.064 C29.2061333,29.064 33.4448,22.4985 33.4448,16.806 C33.4448,16.62 33.4389333,16.434 33.4301333,16.2495 C34.2529333,15.642 34.9686667,14.8845 35.5333333,14.0205" id="icon_tw"></path>
                    </g>
                </g>
            </g>
        </g>
    </g>
</svg>