<?xml version="1.0" encoding="UTF-8" standalone="no"?>
<svg width="20px" height="18px" viewBox="0 0 20 18" version="1.1" xmlns="http://www.w3.org/2000/svg" xmlns:xlink="http://www.w3.org/1999/xlink" xmlns:sketch="http://www.bohemiancoding.com/sketch/ns">
    <!-- Generator: Sketch 3.2.2 (9983) - http://www.bohemiancoding.com/sketch -->
    <title>icon_hatena</title>
    <desc>Created with Sketch.</desc>
    <defs></defs>
    <g id="single" stroke="none" stroke-width="1" fill="none" fill-rule="evenodd" sketch:type="MSPage">
        <g id="single_pc" sketch:type="MSArtboardGroup" transform="translate(-850.000000, -682.000000)">
            <g id="entry-header" sketch:type="MSLayerGroup" transform="translate(170.000000, 430.000000)">
                <g id="sns_flat" transform="translate(80.000000, 240.000000)" sketch:type="MSShapeGroup">
                    <g id="btn_hatena" transform="translate(585.000000, 0.000000)">
                        <g id="icon_hatena" transform="translate(15.000000, 12.000000)">
                            <path d="M15.6980952,0.1766 L19.6198095,0.1766 L19.6198095,11.9416 L15.6980952,11.9416 L15.6980952,0.1766 Z" id="Fill-1" fill="#FFFFFF"></path>
                            <path d="M12.0670476,9.6234 C11.4034286,8.8446 10.4807619,8.4068 9.29695238,8.3124 C10.3499048,8.011 11.1146667,7.5702 11.5982857,6.9812 C12.079619,6.4 12.3184762,5.611 12.3184762,4.6182 C12.3184762,3.8322 12.1548571,3.1368 11.8379048,2.536 C11.5127619,1.939 11.0455238,1.461 10.431619,1.1032 C9.89447619,0.793 9.25619048,0.5742 8.512,0.4452 C7.76419048,0.3202 6.45542857,0.257 4.57752381,0.257 L0.0112380952,0.257 L0.0112380952,17.743 L4.71580952,17.743 C6.60571429,17.743 7.9687619,17.6734 8.80209524,17.5406 C9.63466667,17.4032 10.3333333,17.1718 10.8988571,16.8548 C11.5982857,16.4672 12.1318095,15.9156 12.5045714,15.207 C12.879619,14.4962 13.0655238,13.6764 13.0655238,12.739 C13.0655238,11.4422 12.7327619,10.4 12.0670476,9.6234 L12.0670476,9.6234 Z M4.22761905,4.1336 L5.20228571,4.1336 C6.3287619,4.1336 7.08552381,4.267 7.47619048,4.5328 C7.86152381,4.8 8.05809524,5.261 8.05809524,5.918 C8.05809524,6.55 7.84895238,6.9952 7.4352381,7.2562 C7.01619048,7.5124 6.25219048,7.6422 5.13390476,7.6422 L4.22761905,7.6422 L4.22761905,4.1336 L4.22761905,4.1336 Z M8.09390476,14.161 C7.65047619,14.447 6.88628571,14.5874 5.81409524,14.5874 L4.22780952,14.5874 L4.22780952,10.767 L5.88266667,10.767 C6.98380952,10.767 7.74495238,10.9124 8.14990476,11.203 C8.56133333,11.4938 8.76361905,12.007 8.76361905,12.7438 C8.76342857,13.4032 8.54152381,13.8766 8.09390476,14.161 L8.09390476,14.161 Z" id="Fill-2" fill="#FFFFFF"></path>
                            <path d="M17.6592381,13.118 C16.4211429,13.118 15.4180952,14.1704 15.4180952,15.4704 C15.4180952,16.7704 16.4211429,17.8236 17.6592381,17.8236 C18.8958095,17.8236 19.899619,16.7704 19.899619,15.4704 C19.899619,14.1704 18.8958095,13.118 17.6592381,13.118" id="Fill-3" fill="#F9F9F9"></path>
                            <path d="M11.3512381,9 L0.0112380952,9 L0.0112380952,17.743 L4.71580952,17.743 C6.60571429,17.743 7.9687619,17.6734 8.80209524,17.5406 C9.63466667,17.4032 10.3333333,17.1718 10.8988571,16.8548 C11.5982857,16.4672 12.1318095,15.9156 12.5045714,15.207 C12.879619,14.4962 13.0655238,13.6764 13.0655238,12.739 C13.0655238,11.4424 12.7327619,10.4002 12.0670476,9.6234 C11.8571429,9.3782 11.612381,9.1782 11.3512381,9 L11.3512381,9 Z M8.09390476,14.161 C7.65047619,14.447 6.88628571,14.5874 5.81409524,14.5874 L4.22780952,14.5874 L4.22780952,10.767 L5.88266667,10.767 C6.98380952,10.767 7.74495238,10.9124 8.14990476,11.203 C8.56133333,11.4938 8.76361905,12.007 8.76361905,12.7438 C8.76342857,13.4032 8.54152381,13.8766 8.09390476,14.161 L8.09390476,14.161 Z" id="Fill-4" fill="#F9F9F9"></path>
                            <path d="M15.6980952,9 L19.6198095,9 L19.6198095,11.9416 L15.6980952,11.9416 L15.6980952,9 Z" id="Fill-5" fill="#F9F9F9"></path>
                        </g>
                    </g>
                </g>
            </g>
        </g>
    </g>
</svg>