<?xml version="1.0" encoding="UTF-8" standalone="no"?>
<svg width="49px" height="49px" viewBox="0 0 49 49" version="1.1" xmlns="http://www.w3.org/2000/svg" xmlns:xlink="http://www.w3.org/1999/xlink" xmlns:sketch="http://www.bohemiancoding.com/sketch/ns">
    <!-- Generator: Sketch 3.2.2 (9983) - http://www.bohemiancoding.com/sketch -->
    <title>Imported Layers</title>
    <desc>Created with Sketch.</desc>
    <defs></defs>
    <g id="front-page" stroke="none" stroke-width="1" fill="none" fill-rule="evenodd" sketch:type="MSPage">
        <g id="front-page_pc1280" sketch:type="MSArtboardGroup" transform="translate(-552.000000, -2990.000000)" fill="#636462">
            <g id="footer" sketch:type="MSLayerGroup" transform="translate(0.000000, 2470.000000)">
                <path d="M576.242424,520 C562.854545,520 552,530.854545 552,544.242424 C552,557.633333 562.854545,568.484848 576.242424,568.484848 C589.630303,568.484848 600.484848,557.633333 600.484848,544.242424 C600.484848,530.854545 589.630303,520 576.242424,520 L576.242424,520 Z M585.881818,539.3 C585.892424,539.513636 585.89697,539.725758 585.89697,539.942424 C585.89697,546.515152 580.893939,554.093939 571.745455,554.093939 C568.936364,554.093939 566.322727,553.271212 564.121212,551.859091 C564.512121,551.90303 564.907576,551.927273 565.307576,551.927273 C567.639394,551.927273 569.781818,551.134848 571.483333,549.8 C569.309091,549.757576 567.471212,548.319697 566.839394,546.345455 C567.142424,546.40303 567.45303,546.434848 567.774242,546.434848 C568.228788,546.434848 568.668182,546.372727 569.083333,546.260606 C566.810606,545.801515 565.095455,543.792424 565.095455,541.383333 L565.095455,541.321212 C565.766667,541.693939 566.533333,541.916667 567.348485,541.942424 C566.013636,541.051515 565.136364,539.527273 565.136364,537.80303 C565.136364,536.890909 565.381818,536.036364 565.809091,535.301515 C568.260606,538.312121 571.927273,540.290909 576.060606,540.498485 C575.975758,540.134848 575.931818,539.756061 575.931818,539.365152 C575.931818,536.619697 578.159091,534.393939 580.906061,534.393939 C582.334848,534.393939 583.628788,534.99697 584.536364,535.962121 C585.668182,535.739394 586.733333,535.325758 587.695455,534.754545 C587.321212,535.918182 586.534848,536.890909 585.507576,537.506061 C586.513636,537.387879 587.472727,537.119697 588.363636,536.725758 C587.698485,537.722727 586.854545,538.598485 585.881818,539.3 L585.881818,539.3 Z" id="Imported-Layers" sketch:type="MSShapeGroup"></path>
            </g>
        </g>
    </g>
</svg>