<?xml version="1.0" encoding="UTF-8" standalone="no"?>
<svg width="49px" height="49px" viewBox="0 0 49 49" version="1.1" xmlns="http://www.w3.org/2000/svg" xmlns:xlink="http://www.w3.org/1999/xlink" xmlns:sketch="http://www.bohemiancoding.com/sketch/ns">
    <!-- Generator: Sketch 3.2.2 (9983) - http://www.bohemiancoding.com/sketch -->
    <title>Imported Layers</title>
    <desc>Created with Sketch.</desc>
    <defs></defs>
    <g id="front-page" stroke="none" stroke-width="1" fill="none" fill-rule="evenodd" sketch:type="MSPage">
        <g id="front-page_pc1280" sketch:type="MSArtboardGroup" transform="translate(-616.000000, -2990.000000)" fill="#636462">
            <g id="footer" sketch:type="MSLayerGroup" transform="translate(0.000000, 2470.000000)">
                <path d="M640.242424,520 C626.854545,520 616,530.854545 616,544.242424 C616,557.633333 626.854545,568.484848 640.242424,568.484848 C653.631818,568.484848 664.484848,557.633333 664.484848,544.242424 C664.484848,530.854545 653.631818,520 640.242424,520 L640.242424,520 Z M645.436364,544.251515 L642.039394,544.251515 L642.039394,556.363636 L637.006061,556.363636 L637.006061,544.251515 L634.610606,544.251515 L634.610606,539.971212 L637.006061,539.971212 L637.006061,537.201515 C637.006061,535.219697 637.94697,532.121212 642.084848,532.121212 L645.813636,532.136364 L645.813636,536.290909 L643.107576,536.290909 C642.666667,536.290909 642.039394,536.509091 642.039394,537.456061 L642.039394,539.971212 L645.877273,539.971212 L645.436364,544.251515 L645.436364,544.251515 Z" id="Imported-Layers" sketch:type="MSShapeGroup"></path>
            </g>
        </g>
    </g>
</svg>