<?xml version="1.0" encoding="UTF-8" standalone="no"?>
<svg width="47px" height="46px" viewBox="0 0 47 46" version="1.1" xmlns="http://www.w3.org/2000/svg" xmlns:xlink="http://www.w3.org/1999/xlink" xmlns:sketch="http://www.bohemiancoding.com/sketch/ns">
    <!-- Generator: Sketch 3.2.2 (9983) - http://www.bohemiancoding.com/sketch -->
    <title>Imported Layers</title>
    <desc>Created with Sketch.</desc>
    <defs></defs>
    <g id="front-page" stroke="none" stroke-width="1" fill="none" fill-rule="evenodd" sketch:type="MSPage">
        <g id="front-page_pc1280" sketch:type="MSArtboardGroup" transform="translate(-681.000000, -2990.000000)" fill="#636463">
            <g id="footer" sketch:type="MSLayerGroup" transform="translate(0.000000, 2470.000000)">
                <path d="M704.5,520 C691.522125,520 681,530.535294 681,543.529412 C681,553.926471 687.73275,562.744118 697.071063,565.855882 C698.246062,566.067647 698.674938,565.344118 698.674938,564.717647 C698.674938,564.161765 698.654375,562.679412 698.642625,560.720588 C692.10375,562.138235 690.726063,557.567647 690.726063,557.567647 C689.656813,554.844118 688.117562,554.120588 688.117562,554.120588 C685.982,552.661765 688.279125,552.691176 688.279125,552.691176 C690.637938,552.858824 691.8805,555.114706 691.8805,555.114706 C693.974938,558.711765 697.382438,557.676471 698.719,557.073529 C698.933437,555.55 699.538563,554.517647 700.21125,553.926471 C694.99425,553.335294 689.507,551.311765 689.507,542.297059 C689.507,539.729412 690.4235,537.629412 691.9275,535.985294 C691.683688,535.388235 690.875875,532.997059 692.153688,529.758824 C692.153688,529.758824 694.127687,529.126471 698.616188,532.170588 C700.49325,531.647059 702.5025,531.388235 704.5,531.379412 C706.4975,531.388235 708.50675,531.647059 710.383812,532.170588 C714.869375,529.126471 716.840438,529.758824 716.840438,529.758824 C718.124125,532.997059 717.316312,535.391176 717.075438,535.985294 C718.579438,537.629412 719.487125,539.729412 719.487125,542.297059 C719.487125,551.335294 713.994,553.326471 708.759375,553.908824 C709.602437,554.632353 710.354438,556.067647 710.354438,558.267647 C710.354438,561.408824 710.325063,563.95 710.325063,564.717647 C710.325063,565.35 710.748063,566.079412 711.940687,565.85 C721.273125,562.732353 728,553.920588 728,543.529412 C728,530.535294 717.477875,520 704.5,520" id="Imported-Layers" sketch:type="MSShapeGroup"></path>
            </g>
        </g>
    </g>
</svg>