<?xml version="1.0" encoding="UTF-8" standalone="no"?>
<svg width="35px" height="35px" viewBox="0 0 35 35" version="1.1" xmlns="http://www.w3.org/2000/svg" xmlns:xlink="http://www.w3.org/1999/xlink" xmlns:sketch="http://www.bohemiancoding.com/sketch/ns">
    <!-- Generator: Sketch 3.3.1 (12002) - http://www.bohemiancoding.com/sketch -->
    <title>icon_authorTw.svg</title>
    <desc>Created with Sketch.</desc>
    <defs></defs>
    <g id="single" stroke="none" stroke-width="1" fill-rule="evenodd" sketch:type="MSPage">
        <g id="single_pc" sketch:type="MSArtboardGroup" transform="translate(-579.000000, -2269.000000)">
            <g id="author" sketch:type="MSLayerGroup" transform="translate(173.000000, 2172.000000)">
                <g id="sns" transform="translate(406.000000, 97.000000)" sketch:type="MSShapeGroup">
                    <path d="M25.3164286,13.9310937 C25.3239286,14.0853125 25.3271429,14.2395312 25.3271429,14.3948437 C25.3271429,19.1395312 21.7892857,24.6104687 15.32,24.6104687 C13.3335714,24.6104687 11.4853571,24.0165625 9.92857143,22.9971875 C10.205,23.03 10.4846429,23.0464062 10.7675,23.0464062 C12.4164286,23.0464062 13.9314286,22.474375 15.1346429,21.5107812 C13.5971429,21.48125 12.2975,20.4432812 11.8507143,19.018125 C12.065,19.0585937 12.2846429,19.0815625 12.5117857,19.0815625 C12.8332143,19.0815625 13.1439286,19.0367187 13.4375,18.9557812 C11.8303571,18.624375 10.6175,17.1740625 10.6175,15.435 L10.6175,15.3901562 C11.0921429,15.6592187 11.6342857,15.82 12.2107143,15.8396875 C11.2667857,15.1965625 10.6464286,14.09625 10.6464286,12.8504687 C10.6464286,12.193125 10.82,11.5751562 11.1221429,11.0457812 C12.8557143,13.2179687 15.4485714,14.6475 18.3714286,14.79625 C18.3114286,14.53375 18.2803571,14.2603125 18.2803571,13.978125 C18.2803571,11.99625 19.8553571,10.3895312 21.7978571,10.3895312 C22.8082143,10.3895312 23.7232143,10.8259375 24.365,11.5215625 C25.1653571,11.361875 25.9185714,11.0621875 26.5989286,10.6498437 C26.3353571,11.4898437 25.7782143,12.193125 25.0517857,12.6371875 C25.7632143,12.551875 26.4414286,12.3571875 27.0714286,12.0728125 C26.6010714,12.7925 26.0042857,13.4246875 25.3164286,13.9310937 L25.3164286,13.9310937 Z M17.5,0 C7.835625,0 0,7.835625 0,17.5 C0,27.1665625 7.835625,35 17.5,35 C27.164375,35 35,27.1665625 35,17.5 C35,7.835625 27.164375,0 17.5,0 L17.5,0 Z" id="icon_authorTw.svg"></path>
                </g>
            </g>
        </g>
    </g>
</svg>
