<?xml version="1.0" encoding="UTF-8" standalone="no"?>
<svg width="34px" height="34px" viewBox="0 0 34 34" version="1.1" xmlns="http://www.w3.org/2000/svg" xmlns:xlink="http://www.w3.org/1999/xlink" xmlns:sketch="http://www.bohemiancoding.com/sketch/ns">
    <!-- Generator: Sketch 3.3.1 (12002) - http://www.bohemiancoding.com/sketch -->
    <title>icon_authorGh.svg</title>
    <desc>Created with Sketch.</desc>
    <defs></defs>
    <g id="single" stroke="none" stroke-width="1" fill-rule="evenodd" sketch:type="MSPage">
        <g id="single_pc" sketch:type="MSArtboardGroup" transform="translate(-664.000000, -2269.000000)">
            <g id="author" sketch:type="MSLayerGroup" transform="translate(173.000000, 2172.000000)">
                <g id="sns" transform="translate(406.000000, 97.000000)" sketch:type="MSShapeGroup">
                    <g id="icon_authorGh.svg" transform="translate(85.000000, 0.000000)">
                        <path d="M17,0 C7.61175,0 0,7.79611765 0,17.4117647 C0,25.1055882 4.8705,31.6306471 11.625875,33.9333529 C12.475875,34.0900588 12.786125,33.5546471 12.786125,33.0910588 C12.786125,32.6797059 12.77125,31.5827647 12.76275,30.1332353 C8.0325,31.1822941 7.035875,27.8000588 7.035875,27.8000588 C6.262375,25.7846471 5.148875,25.2492353 5.148875,25.2492353 C3.604,24.1697059 5.26575,24.1914706 5.26575,24.1914706 C6.972125,24.3155294 7.871,25.9848824 7.871,25.9848824 C9.386125,28.6467059 11.851125,27.8805882 12.818,27.4344118 C12.973125,26.307 13.410875,25.5430588 13.8975,25.1055882 C10.1235,24.6681176 6.154,23.1707059 6.154,16.4998235 C6.154,14.5997647 6.817,13.0457647 7.905,11.8291176 C7.728625,11.3872941 7.14425,9.61782353 8.068625,7.22152941 C8.068625,7.22152941 9.496625,6.75358824 12.743625,9.00623529 C14.1015,8.61882353 15.555,8.42729412 17,8.42076471 C18.445,8.42729412 19.8985,8.61882353 21.256375,9.00623529 C24.50125,6.75358824 25.927125,7.22152941 25.927125,7.22152941 C26.85575,9.61782353 26.271375,11.3894706 26.097125,11.8291176 C27.185125,13.0457647 27.84175,14.5997647 27.84175,16.4998235 C27.84175,23.1881176 23.868,24.6615882 20.08125,25.0925294 C20.691125,25.6279412 21.235125,26.6900588 21.235125,28.3180588 C21.235125,30.6425294 21.213875,32.523 21.213875,33.0910588 C21.213875,33.559 21.519875,34.0987647 22.382625,33.929 C29.13375,31.6219412 34,25.1012353 34,17.4117647 C34,7.79611765 26.38825,0 17,0" id="Page-1"></path>
                    </g>
                </g>
            </g>
        </g>
    </g>
</svg>
