<?xml version="1.0" encoding="UTF-8" standalone="no"?>
<svg width="20px" height="17px" viewBox="0 0 20 17" version="1.1" xmlns="http://www.w3.org/2000/svg" xmlns:xlink="http://www.w3.org/1999/xlink" xmlns:sketch="http://www.bohemiancoding.com/sketch/ns">
    <!-- Generator: Sketch 3.3 (11970) - http://www.bohemiancoding.com/sketch -->
    <title>icon_tw</title>
    <desc>Created with Sketch.</desc>
    <defs></defs>
    <g id="single" stroke="none" stroke-width="1" fill="none" fill-rule="evenodd" sketch:type="MSPage">
        <g id="single_pc" sketch:type="MSArtboardGroup" transform="translate(-288.000000, -2832.000000)" fill="#FFFFFF">
            <g id="sns" sketch:type="MSLayerGroup" transform="translate(170.000000, 2744.000000)">
                <g id="btn_twitter" transform="translate(80.000000, 76.000000)" sketch:type="MSShapeGroup">
                    <g id="twitter" transform="translate(38.000000, 5.000000)">
                        <path d="M19.6,8.90825 C18.879,9.23266667 18.1048,9.45083333 17.2914,9.54858333 C18.1202,9.04566667 18.7586,8.24808333 19.0582,7.2975 C18.2826,7.76358333 17.4216,8.10216667 16.5074,8.28491667 C15.7738,7.49441667 14.728,7 13.5702,7 C11.3498,7 9.5494,8.82183333 9.5494,11.0686667 C9.5494,11.3874167 9.5858,11.6976667 9.6544,11.9951667 C6.3126,11.8251667 3.3488,10.2059167 1.365,7.74375 C1.0192,8.34441667 0.8204,9.04566667 0.8204,9.79083333 C0.8204,11.2018333 1.5288,12.4470833 2.6082,13.1766667 C1.9502,13.1554167 1.33,12.9726667 0.7868,12.6680833 L0.7868,12.7205 C0.7868,14.6925 2.1714,16.3358333 4.0124,16.7098333 C3.675,16.8019167 3.3208,16.8515 2.954,16.8515 C2.6936,16.8515 2.443,16.8231667 2.1966,16.77925 C2.709,18.3970833 4.1944,19.5715 5.9528,19.6026667 C4.578,20.6949167 2.842,21.3451667 0.9604,21.3451667 C0.6356,21.3451667 0.315,21.3253333 0,21.2870833 C1.7794,22.4430833 3.892,23.116 6.1628,23.116 C13.5604,23.116 17.6064,16.91525 17.6064,11.539 C17.6064,11.3633333 17.6008,11.1876667 17.5924,11.0134167 C18.3778,10.4396667 19.061,9.72425 19.6,8.90825" id="icon_tw"></path>
                    </g>
                </g>
            </g>
        </g>
    </g>
</svg>