<?xml version="1.0" encoding="UTF-8" standalone="no"?>
<svg width="17px" height="16px" viewBox="0 0 17 16" version="1.1" xmlns="http://www.w3.org/2000/svg" xmlns:xlink="http://www.w3.org/1999/xlink" xmlns:sketch="http://www.bohemiancoding.com/sketch/ns">
    <!-- Generator: Sketch 3.3 (11970) - http://www.bohemiancoding.com/sketch -->
    <title>Imported Layers</title>
    <desc>Created with Sketch.</desc>
    <defs></defs>
    <g id="single" stroke="none" stroke-width="1" fill="none" fill-rule="evenodd" sketch:type="MSPage">
        <g id="single_pc" sketch:type="MSArtboardGroup" transform="translate(-689.000000, -2835.000000)" fill="#FFFFFF">
            <g id="sns" sketch:type="MSLayerGroup" transform="translate(170.000000, 2744.000000)">
                <g id="btn_pocket" transform="translate(480.000000, 76.000000)" sketch:type="MSShapeGroup">
                    <g id="pocket" transform="translate(39.000000, 5.000000)">
                        <path d="M8.14285714,17.9135 L11.2547857,14.6650833 C11.5207857,14.3888333 11.8668571,14.25 12.2142857,14.25 C12.5617143,14.25 12.9077857,14.3888333 13.1737857,14.6650833 C13.7044286,15.2175833 13.7044286,16.1143333 13.1737857,16.66825 L9.33578571,20.6745833 L9.291,20.6278333 C9.0535,21.0415 8.63821429,21.3333333 8.14285714,21.3333333 C7.6475,21.3333333 7.23221429,21.0415 6.99471429,20.6278333 L6.94992857,20.6745833 L3.11192857,16.66825 C2.58128571,16.1143333 2.58128571,15.2175833 3.11192857,14.6650833 C3.37657143,14.3888333 3.724,14.25 4.07142857,14.25 C4.41885714,14.25 4.76492857,14.3888333 5.03092857,14.6650833 L8.14285714,17.9135 M13.5714286,10 L2.71428571,10 C1.216,10 0,11.2693333 0,12.8333333 L0,17.0833333 C0,21.77675 3.64664286,25.5833333 8.14285714,25.5833333 C12.6390714,25.5833333 16.2857143,21.77675 16.2857143,17.0833333 L16.2857143,12.8333333 C16.2857143,11.2693333 15.0697143,10 13.5714286,10" id="Imported-Layers"></path>
                    </g>
                </g>
            </g>
        </g>
    </g>
</svg>