<?xml version="1.0" encoding="UTF-8" standalone="no"?>
<svg width="19px" height="17px" viewBox="0 0 19 17" version="1.1" xmlns="http://www.w3.org/2000/svg" xmlns:xlink="http://www.w3.org/1999/xlink" xmlns:sketch="http://www.bohemiancoding.com/sketch/ns">
    <!-- Generator: Sketch 3.3 (11970) - http://www.bohemiancoding.com/sketch -->
    <title>icon_hatena</title>
    <desc>Created with Sketch.</desc>
    <defs></defs>
    <g id="single" stroke="none" stroke-width="1" fill="none" fill-rule="evenodd" sketch:type="MSPage">
        <g id="single_pc" sketch:type="MSArtboardGroup" transform="translate(-886.000000, -2833.000000)">
            <g id="sns" sketch:type="MSLayerGroup" transform="translate(170.000000, 2744.000000)">
                <g id="btn_hatena" transform="translate(680.000000, 76.000000)" sketch:type="MSShapeGroup">
                    <g id="Hatena-+-icon_hatena" transform="translate(36.000000, 7.000000)">
                        <g id="icon_hatena" transform="translate(0.000000, 6.000000)">
                            <path d="M14.9131905,0.166788889 L18.638819,0.166788889 L18.638819,11.2781778 L14.9131905,11.2781778 L14.9131905,0.166788889 Z" id="Fill-1" fill="#FFFFFF"></path>
                            <path d="M11.4636952,9.08876667 C10.8332571,8.35323333 9.95672381,7.93975556 8.83210476,7.8506 C9.83240952,7.56594444 10.5589333,7.14963333 11.0183714,6.59335556 C11.4756381,6.04444444 11.7025524,5.29927778 11.7025524,4.36163333 C11.7025524,3.6193 11.5471143,2.96253333 11.2460095,2.39511111 C10.9371238,1.83127778 10.4932476,1.37983333 9.9100381,1.04191111 C9.39975238,0.748944444 8.79338095,0.5423 8.0864,0.420466667 C7.37598095,0.302411111 6.13265714,0.242722222 4.34864762,0.242722222 L0.0106761905,0.242722222 L0.0106761905,16.7572778 L4.48001905,16.7572778 C6.27542857,16.7572778 7.57032381,16.6915444 8.36199048,16.5661222 C9.15293333,16.4363556 9.81666667,16.2178111 10.3539143,15.9184222 C11.0183714,15.5523556 11.525219,15.0314 11.8793429,14.3621667 C12.2356381,13.6908556 12.4122476,12.9166 12.4122476,12.0312778 C12.4122476,10.8065222 12.0961238,9.82222222 11.4636952,9.08876667 L11.4636952,9.08876667 Z M4.0162381,3.90395556 L4.94217143,3.90395556 C6.01232381,3.90395556 6.73124762,4.02994444 7.10238095,4.28097778 C7.46844762,4.53333333 7.65519048,4.96872222 7.65519048,5.58922222 C7.65519048,6.18611111 7.45650476,6.60657778 7.06347619,6.85307778 C6.66538095,7.09504444 5.93958095,7.21763333 4.87720952,7.21763333 L4.0162381,7.21763333 L4.0162381,3.90395556 L4.0162381,3.90395556 Z M7.68920952,13.3742778 C7.26795238,13.6443889 6.54197143,13.7769889 5.52339048,13.7769889 L4.01641905,13.7769889 L4.01641905,10.1688333 L5.58853333,10.1688333 C6.63461905,10.1688333 7.35770476,10.3061556 7.74240952,10.5806111 C8.13326667,10.8552556 8.3254381,11.3399444 8.3254381,12.0358111 C8.32525714,12.6585778 8.11444762,13.1056778 7.68920952,13.3742778 L7.68920952,13.3742778 Z" id="Fill-2" fill="#FFFFFF"></path>
                            <path d="M16.7762762,12.3892222 C15.6000857,12.3892222 14.6471905,13.3831556 14.6471905,14.6109333 C14.6471905,15.8387111 15.6000857,16.8334 16.7762762,16.8334 C17.951019,16.8334 18.9046381,15.8387111 18.9046381,14.6109333 C18.9046381,13.3831556 17.951019,12.3892222 16.7762762,12.3892222" id="Fill-3" fill="#F9F9F9"></path>
                            <path d="M10.7836762,8.5 L0.0106761905,8.5 L0.0106761905,16.7572778 L4.48001905,16.7572778 C6.27542857,16.7572778 7.57032381,16.6915444 8.36199048,16.5661222 C9.15293333,16.4363556 9.81666667,16.2178111 10.3539143,15.9184222 C11.0183714,15.5523556 11.525219,15.0314 11.8793429,14.3621667 C12.2356381,13.6908556 12.4122476,12.9166 12.4122476,12.0312778 C12.4122476,10.8067111 12.0961238,9.82241111 11.4636952,9.08876667 C11.2642857,8.85718889 11.0317619,8.6683 10.7836762,8.5 L10.7836762,8.5 Z M7.68920952,13.3742778 C7.26795238,13.6443889 6.54197143,13.7769889 5.52339048,13.7769889 L4.01641905,13.7769889 L4.01641905,10.1688333 L5.58853333,10.1688333 C6.63461905,10.1688333 7.35770476,10.3061556 7.74240952,10.5806111 C8.13326667,10.8552556 8.3254381,11.3399444 8.3254381,12.0358111 C8.32525714,12.6585778 8.11444762,13.1056778 7.68920952,13.3742778 L7.68920952,13.3742778 Z" id="Fill-4" fill="#F9F9F9"></path>
                            <path d="M14.9131905,8.5 L18.638819,8.5 L18.638819,11.2781778 L14.9131905,11.2781778 L14.9131905,8.5 Z" id="Fill-5" fill="#F9F9F9"></path>
                        </g>
                    </g>
                </g>
            </g>
        </g>
    </g>
</svg>